<?xml version="1.0" encoding="UTF-8"?>
<svg width="375px" height="167px" viewBox="0 0 375 167" version="1.1" xmlns="http://www.w3.org/2000/svg" xmlns:xlink="http://www.w3.org/1999/xlink">
    <!-- Generator: Sketch 52.3 (67297) - http://www.bohemiancoding.com/sketch -->
    <title>Page 1</title>
    <desc>Created with Sketch.</desc>
    <g id="Symbols" stroke="none" stroke-width="1" fill="none" fill-rule="evenodd">
        <g id="Cubes-(Dark)">
            <g id="Page-1">
                <g id="light" fill="#23273C">
                    <polygon id="Fill-3" points="216.4664 26.3798 198.1804 36.9378 216.4664 47.4948 234.7524 36.9378"></polygon>
                    <polygon id="Fill-5" points="143.2764 0.0003 124.9474 10.5333 161.5294 31.6503 179.8044 21.0903"></polygon>
                    <polygon id="Fill-9" points="49.2926 36.9696 30.9626 47.5016 67.5456 68.6196 85.8206 58.0596"></polygon>
                    <polygon id="Fill-13" points="115.8376 52.7665 97.5076 63.2985 152.3706 94.9775 170.6466 84.4175"></polygon>
                    <polygon id="Fill-17" points="271.3503 47.4823 179.9113 100.2763 198.1903 110.8373 289.6363 58.0403"></polygon>
                    <polygon id="Fill-21" points="0 48.6435 15.314 39.8015 0 30.9605"></polygon>
                    <polygon id="Fill-23" points="0 97.0293 12.676 89.7113 0 82.3923"></polygon>
                    <polygon id="Fill-25" points="0 146.2017 0 165.6277 1.462 166.4737 92.909 113.6747 74.623 103.1177"></polygon>
                    <polygon id="Fill-30" points="353.7414 39.8019 372.0274 50.3589 374.9994 48.6439 374.9994 30.9599 372.0274 29.2449"></polygon>
                    <polygon id="Fill-33" points="351.1044 89.7114 369.3894 100.2694 374.9994 97.0294 374.9994 82.3924 369.3894 79.1534"></polygon>
                    <polygon id="Fill-36" points="358.182 155.9118 374.999 165.6278 374.999 146.2018"></polygon>
                    <polygon id="Fill-38" points="147.8493 150.7367 111.3213 129.6477 92.9923 140.1797 129.5743 161.2987"></polygon>
                    <polygon id="Fill-42" points="161.6247 161.2101 171.1277 166.7011 188.6857 166.7011 271.3497 118.9741 253.0647 108.4161"></polygon>
                    <polygon id="Fill-47" points="314.3131 17.848 296.0271 28.405 314.3131 38.963 332.5991 28.405"></polygon>
                    <polygon id="Fill-49" points="294.2973 166.701 321.9503 166.701 308.1243 158.718"></polygon>
                </g>
                <g id="med" transform="translate(0.000000, 21.000000)" fill="#181B27">
                    <polygon id="Fill-4" points="216.4664 26.4945 216.4664 47.6735 234.7524 37.1165 234.7524 15.9375"></polygon>
                    <polygon id="Fill-6" points="161.526 10.6532 161.535 31.7642 179.81 21.2032 179.81 0.0882"></polygon>
                    <polygon id="Fill-10" points="67.5417 47.6229 67.5507 68.7339 85.8267 58.1719 85.8267 37.0579"></polygon>
                    <polygon id="Fill-14" points="152.3668 73.9799 152.3758 95.0909 170.6508 84.5299 170.6508 63.4159"></polygon>
                    <polygon id="Fill-18" points="198.1901 89.8373 198.1901 110.9523 289.6361 58.1543 289.6361 37.0403"></polygon>
                    <polygon id="Fill-22" points="0 27.6435 0 48.8225 15.314 39.9805 15.314 18.8015"></polygon>
                    <polygon id="Fill-24" points="0 76.0293 0 118.2593 12.676 110.9413 12.676 68.7113"></polygon>
                    <polygon id="Fill-26" points="1.4616 145.4733 1.4616 145.7013 37.6376 145.7013 92.9086 113.7893 92.9086 92.6753"></polygon>
                    <polygon id="Fill-31" points="372.0276 29.3589 372.0276 50.5389 374.9996 48.8219 374.9996 27.6439"></polygon>
                    <polygon id="Fill-34" points="369.3897 79.2693 369.3897 121.4983 374.9997 118.2593 374.9997 76.0293"></polygon>
                    <polygon id="Fill-39" points="129.5712 140.3001 129.5732 145.7011 147.8542 145.7011 147.8542 129.7361"></polygon>
                    <polygon id="Fill-43" points="188.6859 145.701 225.2579 145.701 271.3499 119.088 271.3499 97.974"></polygon>
                    <polygon id="Fill-48" points="332.5993 7.4052 314.3133 17.9632 314.3373 123.5442 314.3653 123.5292 332.6223 112.9882"></polygon>
                </g>
                <g id="dark" transform="translate(30.000000, 10.000000)" fill="#11131A">
                    <polygon id="Fill-44" points="131.6247 156.701 141.1277 156.701 131.6247 151.21"></polygon>
                    <polygon id="Fill-2" points="168.1803 48.1161 168.1803 26.9371 186.4663 37.4941 186.4663 58.6731"></polygon>
                    <polygon id="Fill-7" points="131.526 21.6532 94.947 0.5322 94.996 21.6712 131.535 42.7642"></polygon>
                    <polygon id="Fill-11" points="37.5417 58.6229 0.9627 37.5019 1.0127 58.6399 37.5507 79.7339"></polygon>
                    <polygon id="Fill-15" points="122.3668 84.9799 67.5078 53.2989 67.5558 74.4369 122.3758 106.0909"></polygon>
                    <polygon id="Fill-19" points="149.9108 90.2767 149.9108 111.3907 168.1898 121.9527 168.1898 100.8377"></polygon>
                    <polygon id="Fill-29" points="323.7419 29.8016 323.7419 50.9806 342.0279 61.5386 342.0279 40.3596"></polygon>
                    <polygon id="Fill-32" points="339.3893 90.2689 321.1043 79.7109 321.1043 121.9409 339.3893 132.4979"></polygon>
                    <polygon id="Fill-37" points="328.182 156.701 344.999 156.701 344.999 155.628 328.182 145.912"></polygon>
                    <polygon id="Fill-40" points="63.0411 151.3181 72.3651 156.7011 99.5731 156.7011 99.5711 151.3001 62.9921 130.1801"></polygon>
                    <polygon id="Fill-46" points="284.3131 28.9628 266.0271 18.4048 266.0511 123.9878 268.7661 125.5548 284.3371 134.5448"></polygon>
                </g>
                <g id="shadow" transform="translate(0.000000, 31.000000)" fill="#181B25">
                    <polygon id="Fill-1" points="198.1803 27.1161 179.6933 37.6731 198.1313 48.1411 216.4663 37.6731"></polygon>
                    <polygon id="Fill-8" points="124.9958 0.6708 106.6668 11.2028 143.2378 32.3178 161.5348 21.7638"></polygon>
                    <polygon id="Fill-12" points="31.0123 37.64 12.6823 48.172 49.2543 69.287 67.5503 58.734"></polygon>
                    <polygon id="Fill-16" points="97.5563 53.4369 79.2273 63.9689 134.0793 95.6449 152.3753 85.0909"></polygon>
                    <polygon id="Fill-20" points="179.8952 90.3666 161.5822 100.9086 179.8812 111.4726 198.1902 100.9456"></polygon>
                    <polygon id="Fill-27" points="0 135.701 1.462 135.701 1.462 135.473 0 134.628"></polygon>
                    <polygon id="Fill-28" points="335.2545 40.5385 353.6925 51.0065 372.0275 40.5385 353.7415 29.9805"></polygon>
                    <polygon id="Fill-35" points="332.8249 132.6313 369.3889 111.4983 351.1039 100.9413 314.5459 122.0693"></polygon>
                    <polygon id="Fill-41" points="83.6721 135.701 102.3651 135.701 93.0411 130.318"></polygon>
                    <polygon id="Fill-45" points="239.3982 135.701 275.9762 135.701 314.3752 113.535 314.3642 113.529 314.3372 113.544 298.7662 104.555 296.0522 102.993"></polygon>
                </g>
            </g>
        </g>
    </g>
</svg>