<?xml version="1.0"?>
<svg width="100" height="100" xmlns="http://www.w3.org/2000/svg" xmlns:svg="http://www.w3.org/2000/svg">

 <g class="layer">
  <title>Layer 1</title>
  <g id="svg_2">
   <g fill="#FFFFFF" id="svg_1" transform="matrix(1.27589, 0, 0, 1.27589, -13.7619, -14.1636)">
    <svg id="svg_3" viewBox="0 0 100 100" x="0px" xmlns="http://www.w3.org/2000/svg" xmlns:xlink="http://www.w3.org/1999/xlink" y="0px">
     <g id="svg_4">
      <path d="m84.8,12.7l-50.5,0l0,5.8l30.7,0l0,11.7l-32.7,0c-1.6,0 -2.9,1.3 -2.9,2.9l0,35.4c0,1.6 1.3,2.9 2.9,2.9l14.9,0c1.6,0 2.9,-1.3 2.9,-2.9c0,-1.6 -1.3,-2.9 -2.9,-2.9l-12,0l0,-29.7l32.8,0c1.6,0 2.9,-1.3 2.9,-2.9l0,-14.6l11.1,0l0,63.5l-3.7,0l0,5.8l6.5,0c1.6,0 2.9,-1.3 2.9,-2.9l0,-69.2c0,-1.6 -1.3,-2.9 -2.9,-2.9z" id="svg_5"/>
      <path d="m71.9,47.3l-26.6,0c-1.6,0 -2.9,1.3 -2.9,2.9c0,1.6 1.3,2.9 2.9,2.9l11.9,0l0,28.8l-38.8,0l0,-63.5l5.2,0l0,-5.8l-8.1,0c-1.6,0 -2.9,1.3 -2.9,2.9l0,69.2c0,1.6 1.3,2.9 2.9,2.9l52.7,0l0,-5.8l-5.4,0l0,-28.7l9,0c1.6,0 2.9,-1.3 2.9,-2.9c0.1,-1.6 -1.2,-2.9 -2.8,-2.9z" id="svg_6"/>
     </g>
    </svg>
   </g>
  </g>
 </g>
</svg>